<svg xmlns="http://www.w3.org/2000/svg" xmlns:xlink="http://www.w3.org/1999/xlink" viewBox="0,0,256,256" width="500px" height="500px"><g fill="none" fill-rule="nonzero" stroke="none" stroke-width="1" stroke-linecap="none" stroke-linejoin="none" stroke-miterlimit="10" stroke-dasharray="" stroke-dashoffset="0" font-family="none" font-weight="none" font-size="none" text-anchor="none" style="mix-blend-mode: normal"><g transform="scale(2.56,2.56)"><circle cx="50" cy="50" r="36.5" fill="#adcbd4" stroke="none" stroke-linecap="butt" stroke-linejoin="miter"></circle><path d="M36.27,93.148c9.36,-6.776 33.091,-25.038 35.369,-28.429c5.024,-7.478 -0.764,-9.679 -0.764,-9.679" fill="none" stroke="#231f20" stroke-linecap="round" stroke-linejoin="round"></path><path d="M65.016,60.512c0,0 13.079,-8.783 2.389,-17.735" fill="none" stroke="#231f20" stroke-linecap="round" stroke-linejoin="round"></path><path d="M45.846,44.407c0,0 1.408,-11.888 -2.616,-18.229c-4.692,-7.394 -12.062,-5.874 -11.47,1.907c1.123,14.768 -10.658,25.267 -23.393,33.821" fill="none" stroke="#231f20" stroke-linecap="round" stroke-linejoin="round"></path><path d="M62.577,48.679c0,0 7.205,-10.088 13.938,-13.785c5.577,-3.062 2.201,-10.693 -4.677,-7.739c-9.361,4.02 -18.029,10.503 -27.005,18.028" fill="none" stroke="#231f20" stroke-linecap="round" stroke-linejoin="round"></path><path d="M60.259,11.051l-2.138,10.472" fill="none" stroke="#231f20" stroke-linecap="round" stroke-linejoin="round"></path><path d="M71.46,15.006l-6.739,8.615" fill="none" stroke="#231f20" stroke-linecap="round" stroke-linejoin="round"></path><path d="M47.789,10.277l3.33,10.458" fill="none" stroke="#231f20" stroke-linecap="round" stroke-linejoin="round"></path></g></g></svg>