<svg xmlns="http://www.w3.org/2000/svg" xmlns:xlink="http://www.w3.org/1999/xlink" viewBox="0,0,256,256" width="500px" height="500px"><g fill="none" fill-rule="nonzero" stroke="none" stroke-width="1" stroke-linecap="none" stroke-linejoin="none" stroke-miterlimit="10" stroke-dasharray="" stroke-dashoffset="0" font-family="none" font-weight="none" font-size="none" text-anchor="none" style="mix-blend-mode: normal"><g transform="scale(2.56,2.56)"><circle cx="50" cy="50" r="36.5" fill="#de9e9c" stroke="none" stroke-linecap="butt" stroke-linejoin="miter"></circle><path d="M78.91,84.567c-15.111,-3.542 -23.993,-11.077 -36.725,-12.493" fill="none" stroke="#231f20" stroke-linecap="round" stroke-linejoin="round"></path><path d="M91.832,47.648c0,0 -31.528,-4.089 -39.281,-21.308c-3.235,-7.184 -10.851,-4.351 -10.373,2.417c0.453,6.398 4.335,8.074 3.22,15.867c-0.692,4.833 1.881,11.647 9.074,13.105" fill="none" stroke="#231f20" stroke-linecap="round" stroke-linejoin="round"></path><path d="M44.711,38.37c0,0 -13.099,-0.715 -18.743,5.484c-5.596,6.147 -1.915,15.079 10.244,13.762c9.186,-0.995 8.116,-9.878 1.097,-10.289c-2.995,-0.175 -3.874,0.052 -5.633,0.506" fill="none" stroke="#231f20" stroke-linecap="round" stroke-linejoin="round"></path><path d="M27.253,56.26c-1.463,1.722 -2.115,7.46 4.042,9.078c3.142,0.825 6.9,0.606 9.523,-0.78c3.809,-2.013 4.043,-7.11 0.322,-8.807" fill="none" stroke="#231f20" stroke-linecap="round" stroke-linejoin="round"></path><path d="M30.162,65.067c-2.411,1.561 -2.218,7.386 2.466,8.744c3.042,0.883 5.756,0.495 8.052,-0.786c3.33,-1.857 3.544,-6.899 0.345,-8.454" fill="none" stroke="#231f20" stroke-linecap="round" stroke-linejoin="round"></path><path d="M43.383,16.447c-4.723,2.043 -6.766,5.872 -6.894,11.489" fill="none" stroke="#231f20" stroke-linecap="round" stroke-linejoin="round"></path><path d="M40.651,11.981c-4.088,1.095 -10.464,6.431 -10.239,14.932" fill="none" stroke="#231f20" stroke-linecap="round" stroke-linejoin="round"></path></g></g></svg>